<mxfile host="app.diagrams.net" modified="2022-07-03T16:45:34.280Z" agent="5.0 (Windows NT 10.0; Win64; x64) AppleWebKit/537.36 (KHTML, like Gecko) Chrome/102.0.5005.115 Safari/537.36 OPR/88.0.4412.53" etag="z1pDUXHwObQPfqtA4NC2" version="20.0.4" type="github">
  <diagram id="IU8xrknCbxoS3MElJnr0" name="Page-1">
    <mxGraphModel dx="828" dy="-317" grid="0" gridSize="10" guides="1" tooltips="1" connect="1" arrows="1" fold="1" page="0" pageScale="1" pageWidth="850" pageHeight="1100" math="0" shadow="0">
      <root>
        <mxCell id="0" />
        <mxCell id="1" parent="0" />
        <mxCell id="b5KehOeUu0yEov2A90qx-10" value="alumniÂ " style="swimlane;" parent="1" vertex="1">
          <mxGeometry x="230" y="1000" width="200" height="600" as="geometry" />
        </mxCell>
        <mxCell id="b5KehOeUu0yEov2A90qx-11" value="" style="ellipse;whiteSpace=wrap;html=1;aspect=fixed;fillColor=#000000;" parent="b5KehOeUu0yEov2A90qx-10" vertex="1">
          <mxGeometry x="85" y="45" width="30" height="30" as="geometry" />
        </mxCell>
        <mxCell id="b5KehOeUu0yEov2A90qx-12" value="pilih menu daftar" style="rounded=1;whiteSpace=wrap;html=1;fillColor=#FFFFFF;" parent="b5KehOeUu0yEov2A90qx-10" vertex="1">
          <mxGeometry x="55" y="120" width="90" height="40" as="geometry" />
        </mxCell>
        <mxCell id="b5KehOeUu0yEov2A90qx-13" value="mengisi formulir pendaftaran" style="rounded=1;whiteSpace=wrap;html=1;fillColor=#FFFFFF;" parent="b5KehOeUu0yEov2A90qx-10" vertex="1">
          <mxGeometry x="70" y="330" width="90" height="40" as="geometry" />
        </mxCell>
        <mxCell id="b5KehOeUu0yEov2A90qx-14" value="sistem" style="swimlane;" parent="1" vertex="1">
          <mxGeometry x="430" y="1000" width="238" height="600" as="geometry" />
        </mxCell>
        <mxCell id="b5KehOeUu0yEov2A90qx-15" value="halaman utama" style="rounded=1;whiteSpace=wrap;html=1;fillColor=#FFFFFF;" parent="b5KehOeUu0yEov2A90qx-14" vertex="1">
          <mxGeometry x="75" y="40" width="90" height="40" as="geometry" />
        </mxCell>
        <mxCell id="b5KehOeUu0yEov2A90qx-16" value="tampil menu daftar" style="rounded=1;whiteSpace=wrap;html=1;fillColor=#FFFFFF;" parent="b5KehOeUu0yEov2A90qx-14" vertex="1">
          <mxGeometry x="75" y="230" width="90" height="40" as="geometry" />
        </mxCell>
        <mxCell id="b5KehOeUu0yEov2A90qx-17" value="" style="edgeStyle=orthogonalEdgeStyle;rounded=0;orthogonalLoop=1;jettySize=auto;html=1;" parent="b5KehOeUu0yEov2A90qx-14" source="b5KehOeUu0yEov2A90qx-18" target="b5KehOeUu0yEov2A90qx-19" edge="1">
          <mxGeometry relative="1" as="geometry" />
        </mxCell>
        <mxCell id="b5KehOeUu0yEov2A90qx-18" value="simpan data dan menampilkan pendaftaran berhasil" style="rounded=1;whiteSpace=wrap;html=1;fillColor=#FFFFFF;" parent="b5KehOeUu0yEov2A90qx-14" vertex="1">
          <mxGeometry x="45" y="500" width="125" height="40" as="geometry" />
        </mxCell>
        <mxCell id="b5KehOeUu0yEov2A90qx-19" value="" style="ellipse;html=1;shape=endState;fillColor=#000000;strokeColor=#000000;" parent="b5KehOeUu0yEov2A90qx-14" vertex="1">
          <mxGeometry x="92.5" y="560" width="30" height="30" as="geometry" />
        </mxCell>
        <mxCell id="b5KehOeUu0yEov2A90qx-20" value="" style="edgeStyle=orthogonalEdgeStyle;rounded=0;orthogonalLoop=1;jettySize=auto;html=1;entryX=1;entryY=0.5;entryDx=0;entryDy=0;" parent="b5KehOeUu0yEov2A90qx-14" source="b5KehOeUu0yEov2A90qx-22" target="b5KehOeUu0yEov2A90qx-16" edge="1">
          <mxGeometry relative="1" as="geometry">
            <mxPoint x="217.5" y="410" as="targetPoint" />
            <Array as="points">
              <mxPoint x="210" y="410" />
              <mxPoint x="210" y="250" />
            </Array>
          </mxGeometry>
        </mxCell>
        <mxCell id="b5KehOeUu0yEov2A90qx-21" value="" style="edgeStyle=orthogonalEdgeStyle;rounded=0;orthogonalLoop=1;jettySize=auto;html=1;" parent="b5KehOeUu0yEov2A90qx-14" source="b5KehOeUu0yEov2A90qx-22" edge="1">
          <mxGeometry relative="1" as="geometry">
            <mxPoint x="108" y="500" as="targetPoint" />
          </mxGeometry>
        </mxCell>
        <mxCell id="b5KehOeUu0yEov2A90qx-22" value="lengkap?" style="rhombus;whiteSpace=wrap;html=1;" parent="b5KehOeUu0yEov2A90qx-14" vertex="1">
          <mxGeometry x="67.5" y="370" width="80" height="80" as="geometry" />
        </mxCell>
        <mxCell id="b5KehOeUu0yEov2A90qx-23" style="edgeStyle=orthogonalEdgeStyle;rounded=0;orthogonalLoop=1;jettySize=auto;html=1;exitX=0.5;exitY=1;exitDx=0;exitDy=0;" parent="b5KehOeUu0yEov2A90qx-14" source="b5KehOeUu0yEov2A90qx-18" target="b5KehOeUu0yEov2A90qx-18" edge="1">
          <mxGeometry relative="1" as="geometry" />
        </mxCell>
        <mxCell id="b5KehOeUu0yEov2A90qx-24" value="yes" style="text;html=1;strokeColor=none;fillColor=none;align=center;verticalAlign=middle;whiteSpace=wrap;rounded=0;" parent="b5KehOeUu0yEov2A90qx-14" vertex="1">
          <mxGeometry x="92.5" y="455" width="60" height="30" as="geometry" />
        </mxCell>
        <mxCell id="b5KehOeUu0yEov2A90qx-25" value="no" style="text;html=1;strokeColor=none;fillColor=none;align=center;verticalAlign=middle;whiteSpace=wrap;rounded=0;" parent="b5KehOeUu0yEov2A90qx-14" vertex="1">
          <mxGeometry x="147.5" y="380" width="60" height="30" as="geometry" />
        </mxCell>
        <mxCell id="b5KehOeUu0yEov2A90qx-26" value="" style="edgeStyle=orthogonalEdgeStyle;rounded=0;orthogonalLoop=1;jettySize=auto;html=1;entryX=0;entryY=0.5;entryDx=0;entryDy=0;" parent="1" source="b5KehOeUu0yEov2A90qx-11" target="b5KehOeUu0yEov2A90qx-15" edge="1">
          <mxGeometry relative="1" as="geometry">
            <mxPoint x="380" y="1055" as="targetPoint" />
            <Array as="points">
              <mxPoint x="390" y="1060" />
              <mxPoint x="390" y="1060" />
            </Array>
          </mxGeometry>
        </mxCell>
        <mxCell id="b5KehOeUu0yEov2A90qx-27" value="" style="edgeStyle=orthogonalEdgeStyle;rounded=0;orthogonalLoop=1;jettySize=auto;html=1;entryX=1;entryY=0.5;entryDx=0;entryDy=0;" parent="1" source="b5KehOeUu0yEov2A90qx-15" target="b5KehOeUu0yEov2A90qx-12" edge="1">
          <mxGeometry relative="1" as="geometry">
            <mxPoint x="550" y="1140" as="targetPoint" />
            <Array as="points">
              <mxPoint x="550" y="1140" />
            </Array>
          </mxGeometry>
        </mxCell>
        <mxCell id="b5KehOeUu0yEov2A90qx-28" value="" style="edgeStyle=orthogonalEdgeStyle;rounded=0;orthogonalLoop=1;jettySize=auto;html=1;entryX=0;entryY=0.5;entryDx=0;entryDy=0;" parent="1" source="b5KehOeUu0yEov2A90qx-12" target="b5KehOeUu0yEov2A90qx-16" edge="1">
          <mxGeometry relative="1" as="geometry">
            <Array as="points">
              <mxPoint x="330" y="1250" />
            </Array>
          </mxGeometry>
        </mxCell>
        <mxCell id="b5KehOeUu0yEov2A90qx-29" value="" style="edgeStyle=orthogonalEdgeStyle;rounded=0;orthogonalLoop=1;jettySize=auto;html=1;entryX=1;entryY=0.5;entryDx=0;entryDy=0;" parent="1" source="b5KehOeUu0yEov2A90qx-16" target="b5KehOeUu0yEov2A90qx-13" edge="1">
          <mxGeometry relative="1" as="geometry">
            <mxPoint x="550" y="1340" as="targetPoint" />
            <Array as="points">
              <mxPoint x="550" y="1350" />
            </Array>
          </mxGeometry>
        </mxCell>
        <mxCell id="b5KehOeUu0yEov2A90qx-30" value="" style="edgeStyle=orthogonalEdgeStyle;rounded=0;orthogonalLoop=1;jettySize=auto;html=1;" parent="1" source="b5KehOeUu0yEov2A90qx-13" edge="1">
          <mxGeometry relative="1" as="geometry">
            <mxPoint x="500" y="1410" as="targetPoint" />
            <Array as="points">
              <mxPoint x="350" y="1410" />
            </Array>
          </mxGeometry>
        </mxCell>
      </root>
    </mxGraphModel>
  </diagram>
</mxfile>
